<svg width="14" height="11" viewBox="0 0 14 11" fill="none" xmlns="http://www.w3.org/2000/svg">
<path fill-rule="evenodd" clip-rule="evenodd" d="M13.2262 1.06547C12.7029 1.33545 12.1248 1.53194 11.5073 1.63804C11.0147 1.17863 10.3118 0.893268 9.53339 0.893268C8.04005 0.893268 6.8281 1.94892 6.8281 3.24995C6.8281 3.43414 6.85326 3.61434 6.89816 3.78653C4.6516 3.68814 2.65794 2.74966 1.32334 1.32407C1.09014 1.67155 0.958768 2.07623 0.958768 2.50857C0.958768 3.32652 1.43611 4.04791 2.16088 4.47043C1.71747 4.4575 1.30035 4.35111 0.935776 4.1743V4.20382C0.935776 5.34587 1.86856 6.2979 3.10461 6.51499C2.87798 6.56881 2.63931 6.59832 2.39189 6.59832C2.21781 6.59832 2.04922 6.58264 1.8828 6.55496C2.22766 7.49161 3.22614 8.17272 4.40963 8.19272C3.48342 8.82432 2.31744 9.2007 1.05074 9.2007C0.831776 9.2007 0.616096 9.18963 0.4048 9.16842C1.60142 9.83692 3.0236 10.2274 4.55086 10.2274C9.52682 10.2274 12.2474 6.63584 12.2474 3.52117L12.2387 3.21582C12.7686 2.88495 13.2284 2.46952 13.5897 1.99781C13.1047 2.18477 12.5846 2.31176 12.0372 2.36865C12.5956 2.07745 13.0237 1.61466 13.2262 1.06547Z" fill="white"/>
</svg>
