<svg width="9" height="13" viewBox="0 0 9 13" fill="none" xmlns="http://www.w3.org/2000/svg">
<path fill-rule="evenodd" clip-rule="evenodd" d="M7.73308 0.49652L6.00545 0.494375C4.06543 0.494375 2.81077 1.61889 2.81077 3.35997V4.68099H1.07329C0.924395 4.68099 0.801778 4.78739 0.801778 4.9193V6.8335C0.801778 6.96449 0.924395 7.07088 1.07329 7.07088H2.80967V11.9017C2.80967 12.0327 2.9323 12.1397 3.08119 12.1397H5.34746C5.49855 12.1397 5.62008 12.0327 5.62008 11.9017V7.07088H7.65096C7.80096 7.07088 7.92247 6.96449 7.92247 6.8335L7.92357 4.9193C7.92357 4.85596 7.89511 4.79568 7.84475 4.7514C7.79329 4.70589 7.72432 4.68099 7.65206 4.68099H5.62008V3.56108C5.62008 3.02295 5.76678 2.74928 6.56929 2.74928H7.73198C7.88416 2.74928 8.00459 2.64288 8.00459 2.51157V0.734225C8.00459 0.602915 7.88416 0.49652 7.73308 0.49652Z" fill="white"/>
</svg>
