<svg width="12" height="14" viewBox="0 0 12 14" fill="none" xmlns="http://www.w3.org/2000/svg">
<path fill-rule="evenodd" clip-rule="evenodd" d="M2.55391 8.19392C3.22832 7.09768 2.33715 6.85722 2.19701 6.06294C1.62661 2.81512 6.26974 0.597424 8.70133 2.86648C10.3841 4.43781 9.27501 9.27048 6.56315 8.7671C3.96514 8.28802 7.83642 4.44149 5.76173 3.68688C4.07681 3.0728 3.18125 5.56355 3.98047 6.80125C3.51189 8.93008 2.50356 10.935 2.91192 13.6035C4.23666 12.7197 4.68443 11.0257 5.0501 9.25941C5.71576 9.63179 6.07266 10.0189 6.92114 10.0792C10.0523 10.3021 11.8019 7.20285 11.3727 4.34248C10.9928 1.80653 8.24588 0.515328 5.31505 0.818208C2.99841 1.05714 0.68945 2.78006 0.593102 5.24437C0.535072 6.74835 0.999284 7.8772 2.55391 8.19392Z" fill="white"/>
</svg>
